<svg width="512" height="512" viewBox="0 0 512 512" xmlns="http://www.w3.org/2000/svg">
  <rect width="512" height="512" rx="112" fill="#0a0b0d"/>
  <g transform="translate(65 137) scale(0.104)" fill="#ffffff">
    <path d="M3665.75 454.394L1833.92 2286.53L5.41602 457.726C36.0688 300.439 86.7124 149.816 154.682 8.52344L813.049 666.999C845.701 441.064 950.987 239.123 1104.92 84.5014L1398.78 378.416C1286.83 490.383 1217.53 645.005 1217.53 816.289C1217.53 987.572 1278.84 1123.53 1379.46 1233.5C1386.12 1240.83 1392.79 1248.16 1399.45 1254.83C1405.45 1260.83 1412.11 1267.49 1418.77 1272.82C1528.72 1373.46 1675.32 1434.78 1835.92 1434.78C1996.51 1434.78 2161.77 1365.46 2273.72 1253.49C2385.67 1141.53 2454.97 986.906 2454.97 815.622C2454.97 644.339 2386.33 491.05 2275.05 379.082L2568.92 85.1678C2724.18 240.456 2830.13 445.063 2861.45 673.663L3520.49 14.5217C3586.46 152.482 3635.77 300.439 3665.75 454.394Z"/>
  </g>
</svg>
