<svg width="293" height="179" viewBox="0 0 293 179" fill="none" xmlns="http://www.w3.org/2000/svg">
<path d="M204.2 120.4L193.9 130.7C185.4 137.7 175.4 142.9 164.4 145.6C175.4 142.8 185.5 137.7 193.9 130.7L146.3 178.3L146 178L145.7 178.3L98.1 130.7C94.4 127.6 90.9 124.2 87.9 120.4L0 32.5C3.3 21.1 7.9 10.3 13.6 0.199997L72 58.6C74.1 47.3 78.7 37 85.2 28.1C91.2 35 98.4 40.8 106.4 45.4C101.1 53.1 98 62.5 98 72.6C98 82.7 98.7 82.3 100.1 86.8C104.8 101.9 116.7 113.8 131.7 118.4C136.2 119.8 141 120.5 145.9 120.5C150.8 120.5 155.6 119.8 160.1 118.4C175.2 113.7 187.1 101.8 191.7 86.8C193.1 82.3 193.8 77.5 193.8 72.6C193.8 62.6 190.7 53.3 185.5 45.6C193.5 41.1 200.7 35.3 206.8 28.4C213.2 37.2 217.8 47.5 219.9 58.7L278.6 0C284.3 10.1 289 20.9 292.3 32.2L204.1 120.4H204.2ZM111 139.2C116.4 142.1 122.2 144.3 128.3 145.7C122.2 144.2 116.4 142 111 139.2Z" fill="white"/>
</svg>
